<?xml version="1.0" encoding="utf-8"?>
<!-- Generator: Adobe Illustrator 24.1.1, SVG Export Plug-In . SVG Version: 6.00 Build 0)  -->
<svg version="1.1" id="Layer_1" xmlns="http://www.w3.org/2000/svg" xmlns:xlink="http://www.w3.org/1999/xlink" x="0px" y="0px"
	 viewBox="0 0 707.2 539.4" style="enable-background:new 0 0 707.2 539.4;" xml:space="preserve">
<style type="text/css">
	.st0{fill:#4A4AF5;}
	.st1{fill:#2F2E41;}
	.st2{fill:#3F3D56;}
	.st3{fill:#E6E6E6;}
	.st4{fill:#525CA9;}
	.st5{opacity:0.5;enable-background:new    ;}
	.st6{fill:#CCCCCC;}
</style>
<path class="st0" d="M176.7,308.9c-0.1-1.9-1-3.6-2.4-4.8l-11.1-9.7c-2.7-2.4-6.8-2.3-9.4,0.2c-0.2,0.2-0.3,0.3-0.5,0.5l-29.1,33.3
	l-3.2,3.6l-48.6,55.8c-2.5,2.9-2.2,7.3,0.7,9.9l11.1,9.7c2.9,2.5,7.3,2.2,9.9-0.7l26.9-30.9l24.3-27.8l29.6-34
	C176.2,312.6,176.8,310.7,176.7,308.9z"/>
<path class="st0" d="M352.9,246l-6.8-13.1c-1.8-3.4-6-4.8-9.4-3l-55.1,28.4l-34.6,17.9l-19.6,10.1c-0.5,0.3-1,0.6-1.4,1
	c-1,0.8-1.7,1.9-2,3.1c-0.6,1.8-0.4,3.7,0.4,5.3l2.6,5.1l4.1,8c0.8,1.7,2.3,2.9,4.1,3.5c0.7,0.2,1.4,0.3,2.1,0.3
	c1.1,0,2.2-0.3,3.2-0.8l23.3-12l30.5-15.7l55.5-28.6C353.4,253.7,354.7,249.5,352.9,246L352.9,246z"/>
<path class="st1" d="M294.8,284.7l-0.3-0.6l-11.8-24.4c-0.8-1.7-2.3-2.9-4-3.5c-1.8-0.6-3.7-0.4-5.4,0.4l-28.8,17.5l-19.2,11.6
	c-0.1,0.1-0.3,0.2-0.4,0.3c-1.1,1-1.7,3.5-2.2,5.6c-0.2,0.7-0.3,1.4-0.5,1.8c0,0.2-0.1,0.4-0.1,0.5c-0.4,1.6-0.2,3.3,0.5,4.8
	l2.4,4.7l4.3,8.5c1.2,2.4,3.6,3.9,6.3,3.9c1.1,0,2.1-0.3,3.1-0.7l26.9-10.6l26.3-10.4C295.1,292.3,296.5,288.1,294.8,284.7
	L294.8,284.7z"/>
<circle class="st0" cx="199.5" cy="193.5" r="53.5"/>
<path class="st0" d="M201,407.1c-0.1-2.8-1.9-5.2-4.5-6.2c-0.8-0.3-1.7-0.5-2.5-0.5h-14.8c-3.9,0-7,3.1-7,7v125c0,3.9,3.1,7,7,7
	h14.8c3.9,0,7-3.1,7-7v-125C201.1,407.3,201,407.2,201,407.1z"/>
<path class="st0" d="M268.1,462.9c-0.2-0.5-0.5-0.9-0.8-1.3l-25.2-35.2l-20.7-29h-35.4l2.5,3.5l4.5,6.2l13.8,19.3l29.6,41.3
	l7.6,10.6c2.2,3.1,6.6,3.9,9.8,1.6l12-8.6C268.4,469.4,269.4,465.9,268.1,462.9z M195.8,361.5c-2.3-3.1-6.6-3.9-9.8-1.6l-12,8.6
	c-3.1,2.3-3.9,6.6-1.6,9.8l4.4,6.2h35.4L195.8,361.5z"/>
<path class="st0" d="M268.3,463.2c-0.1-0.1-0.1-0.2-0.2-0.3c-0.9-1.3-2.2-2.3-3.6-3l-13.2-6.6c-3.5-1.7-7.2-1.3-8.3,0.9l-6.7,13.4
	l-27.4,55c-1.1,2.2,0.8,5.5,4.2,7.2l13.2,6.6c1.3,0.7,2.8,1,4.2,1.1c1.9,0,3.4-0.7,4.1-2l34-68.4
	C269.3,465.8,269.1,464.4,268.3,463.2z"/>
<path class="st1" d="M189.2,292.4l-2.2-2.2l-1.2-1.2l-7.1-7c-1.2-1.2-2.7-1.9-4.4-2c-0.2,0-0.4,0-0.6,0c-0.4,0-1.1,0-1.8-0.1
	c-2.4-0.2-5.3-0.5-6.4,0.6l-13.7,11.8l-28.9,25c-1,1.1-1.7,2.4-1.9,3.9c-0.1,0.4-0.1,0.7-0.1,1.1c0,0.3,0,0.6,0.1,1
	c0.2,1.5,0.9,2.9,2,4l1.2,1.1l18.9,18.1c1.3,1.3,3.1,2,5,2c0.8,0,1.6-0.1,2.4-0.4c1-0.4,1.9-0.9,2.6-1.7l32.9-39.9l2.1-2.6l1.2-1.5
	C192,299.6,192,295.1,189.2,292.4z"/>
<path class="st1" d="M192.4,213.4l-0.1-2c3.7-0.1,7-0.3,9.5-2.1c1.4-1.1,2.3-2.7,2.4-4.5c0.1-1.1-0.3-2.2-1.2-2.9
	c-1.6-1.4-4.3-0.9-6.2-0.1l-1.7,0.8l3.2-23.2l2,0.3l-2.7,19.7c2.6-0.8,5-0.4,6.7,1c1.3,1.1,2,2.8,1.9,4.5c-0.1,2.4-1.3,4.6-3.2,6.1
	C199.8,213.2,195.7,213.3,192.4,213.4z"/>
<rect x="210.1" y="181.3" class="st1" width="10.8" height="2"/>
<rect x="176.1" y="181.3" class="st1" width="10.8" height="2"/>
<path class="st1" d="M194.5,113.3c-5.9-23.8-28.9-42.1-53.6-41.6c-12.2,0.3-24,4.6-33.6,12.2c-4.8,3.8-9,8.3-12.3,13.5
	c-3.7,5.8-6,12.3-7.9,18.9c-3.7,13.3-5.4,28.5-14.8,39.4c-7.8,8.9-19.2,14-31,14c-12-0.2-23.2-6-30.3-15.6
	c-7-9.4-10.5-22.3-6.4-33.6c2-5.6,6.3-10.8,12.4-11.7c5.7-0.8,11.3,1.9,14.3,6.9c2.8,4.8,1.9,11.3-1.6,15.6
	c-3.6,4.5-9.7,5.7-15.1,3.9c-2.5-0.9-4.7-2.4-6.4-4.5c-1.2-1.5-3.3,0.6-2.1,2.1c3.9,4.6,9.9,6.9,15.8,6.1c6-0.9,10.9-5.1,12.9-10.8
	c2.1-5.7,1-12.1-3-16.6c-4.1-4.5-10.3-6.5-16.3-5.4c-6.3,1.3-10.9,6.5-13.3,12.3c-2.4,6-3,12.5-1.8,18.8
	c2.2,12.3,9.6,23.2,20.2,29.8c10.7,6.6,24,7.5,35.7,3.2c5.8-2.1,11.2-5.4,15.7-9.6c4.8-4.9,8.5-10.8,10.8-17.2
	c5.3-13.8,6-29.3,13.5-42.3c6.5-11,16.8-19.3,28.9-23.4c12.1-4.2,25.3-3.5,36.9,1.8c11.6,5.4,20.9,14.6,26.3,26.1
	c1.3,2.8,2.3,5.7,3.1,8.7C192.1,116,195,115.2,194.5,113.3L194.5,113.3z"/>
<path class="st1" d="M252.4,306.4c-0.4-1.6-0.9-3.1-1.4-4.6c-3.3-9.3-9.2-17.5-16.9-23.7c-0.9-0.7-1.8-1.4-2.7-2
	c-4.6-3.3-9.7-5.8-15.1-7.4c0.4-1.5,0.4-3.2,0-4.7c-1.2-4-5-6.7-9.1-6.6h-13c-4.2-0.1-7.9,2.6-9.2,6.6c-0.4,1.5-0.5,3.2,0,4.7
	c-22.5,6.9-37.8,27.7-37.8,51.2v103.7c0,7.1,2.7,12.8,6,12.8h95c0,0,27.1,0,27.1,0c3.3-0.1,5.9-5.8,5.9-12.8l0,0
	c0-23.9-5.3-57.6-15.5-79.2l-11.5-24.4C254.1,315.3,253.5,310.8,252.4,306.4z"/>
<path class="st2" d="M145.6,205.8c-6.6,0-12-8.1-12-18s5.4-18,12-18s12,8.1,12,18S152.2,205.8,145.6,205.8z"/>
<path class="st2" d="M252.6,205.8c-6.6,0-12-8.1-12-18s5.4-18,12-18c6.6,0,12,8.1,12,18S259.2,205.8,252.6,205.8z"/>
<path class="st2" d="M255.9,203c-0.8,0-1.5-0.7-1.5-1.5c0-0.2,0-0.3,0.1-0.5c10.3-30.6-6.2-63.8-36.8-74.1s-63.8,6.2-74.1,36.8
	c-3.3,9.9-3.9,20.5-1.8,30.7c0.2,0.8-0.4,1.6-1.2,1.8c-0.8,0.2-1.6-0.3-1.8-1.2c-7-33.2,14.2-65.9,47.5-72.9s65.9,14.2,72.9,47.5
	c2.3,10.7,1.6,21.9-1.9,32.3C257.1,202.6,256.6,203,255.9,203z"/>
<path class="st1" d="M176.6,151.8c-2.1,2.9-1.1,6.8,1.2,9.3c2.9,3.2,7.5,3.5,11.6,2.8c4.5-0.7,9.3-2.8,13.9-1.4
	c3.9,1.2,6.7,4.7,10.7,5.6c3.6,0.8,7.9-0.3,9.1-4.1c0.6-1.8-2.3-2.6-2.9-0.8c-0.8,2.5-4.3,2.4-6.3,1.7c-3.2-1.1-5.7-3.8-8.9-5
	c-3.7-1.5-7.8-0.8-11.6,0c-3.6,0.8-7.7,2-11.3,0.5c-2.6-1.1-4.7-4.6-2.8-7.2C180.3,151.8,177.7,150.3,176.6,151.8z"/>
<path class="st2" d="M320.5,539.3h-216c-0.6,0-1-0.4-1-1c0-0.6,0.4-1,1-1h216c0.6,0,1,0.4,1,1C321.5,538.9,321.1,539.3,320.5,539.3z
	"/>
<path class="st3" d="M705.3,232.4H468c-1,0-1.8-0.8-1.8-1.8c0-1,0.8-1.8,1.8-1.8c0,0,0,0,0,0h237.3c1,0,1.8,0.8,1.8,1.8
	C707.2,231.6,706.4,232.4,705.3,232.4C705.4,232.4,705.4,232.4,705.3,232.4z"/>
<path class="st4" d="M604.5,131.2h-92.3c-10.7,0-19.4-8.7-19.5-19.5V19.4c0-10.7,8.7-19.4,19.5-19.4h92.3c10.7,0,19.4,8.7,19.5,19.4
	v92.3C623.9,122.5,615.2,131.2,604.5,131.2z"/>
<path class="st5" d="M661.2,174h-92.3c-10.7,0-19.4-8.7-19.5-19.4V62.3c0-10.7,8.7-19.4,19.5-19.5h92.3c10.7,0,19.4,8.7,19.5,19.5
	v92.3C680.6,165.3,671.9,174,661.2,174z"/>
<path class="st6" d="M502.1,285.3c-0.6,0-1-0.4-1-1v-18c0-0.6,0.4-1,1-1s1,0.4,1,1v18C503.1,284.9,502.6,285.3,502.1,285.3z"/>
<path class="st2" d="M583.6,285.3c-0.6,0-1-0.4-1-1v-18c0-0.6,0.4-1,1-1s1,0.4,1,1v18C584.6,284.9,584.1,285.3,583.6,285.3z"/>
<path class="st2" d="M590.6,285.3c-0.6,0-1-0.4-1-1v-18c0-0.6,0.4-1,1-1s1,0.4,1,1v18C591.6,284.9,591.1,285.3,590.6,285.3z"/>
<path class="st6" d="M516.7,285.7c-0.4,0-0.8-0.1-1.2-0.3l-11.9-8c0,0,0,0-0.1,0c-0.7-0.4-1.1-1.2-1.1-1.9c0-0.8,0.4-1.6,1.2-2
	l11.8-8c1.1-0.7,2.5-0.3,3.2,0.8c0.2,0.4,0.3,0.8,0.3,1.2v16C519.1,284.6,518,285.7,516.7,285.7z M516.6,283.7c0.1,0,0.2,0,0.3,0
	c0.1-0.1,0.2-0.2,0.2-0.3v-16c0-0.2-0.1-0.3-0.3-0.3c-0.1,0-0.1,0-0.2,0l-11.8,8c-0.2,0.1-0.2,0.2-0.2,0.3c0,0.1,0.1,0.2,0.2,0.3
	l0.1,0L516.6,283.7z"/>
<path class="st6" d="M670.1,285.3c-0.6,0-1-0.4-1-1v-18c0-0.6,0.4-1,1-1s1,0.4,1,1v18C671.1,284.9,670.6,285.3,670.1,285.3z"/>
<path class="st6" d="M655.4,285.7c-0.4,0-0.8-0.1-1.1-0.3c-0.7-0.4-1.2-1.2-1.2-2v-16c0-1.3,1-2.3,2.3-2.3c0.4,0,0.8,0.1,1.2,0.3
	l11.9,8c0.7,0.4,1.1,1.2,1.1,2c0,0.8-0.4,1.6-1.1,2l-11.8,8C656.2,285.5,655.8,285.7,655.4,285.7z M655.1,283.3
	c0,0.2,0.1,0.3,0.3,0.3c0.1,0,0.1,0,0.2,0l11.8-8c0.1-0.1,0.2-0.2,0.2-0.3v0c0-0.1-0.1-0.2-0.2-0.3l-11.9-8c-0.1,0-0.2,0-0.3,0
	c-0.1,0.1-0.2,0.2-0.2,0.3L655.1,283.3z"/>
<circle class="st2" cx="534.1" cy="230.6" r="12"/>
</svg>
