<svg id="Layer_1" data-name="Layer 1" xmlns="http://www.w3.org/2000/svg" viewBox="0 0 751.13 399.33"><defs><style>.cls-1{fill:#e6e6e6;}.cls-2{fill:#3f3d56;}.cls-3{fill:#ffb6b6;}.cls-4{fill:#6c63ff;}.cls-5{fill:#2f2e41;}.cls-6{fill:#f2f2f2;}.cls-7{fill:#ccc;}.cls-8{fill:#fff;}.cls-9{fill:#cacaca;}</style></defs><path class="cls-1" d="M680.15,553.84H520.88V549a16,16,0,0,1,16-16H664.15a16,16,0,0,1,16,16v4.89Z" transform="translate(0 -157.08)"/><path class="cls-2" d="M330.24,282.21c5-63.72,30.44-94.08,14.14-113.12-15.62-18.24-59.62-14.47-87.88,3-76.21,47.2-104.13,235.33-6.06,327.25,93.2,87.34,269.82,59.37,309.07-12.12,9.16-16.68,16.44-45.92,3-63.63-33.28-44-154.27,35.66-208.06-14.14C322.6,380,327.5,317.18,330.24,282.21Z" transform="translate(0 -157.08)"/><path class="cls-3" d="M388.49,250.55a7.82,7.82,0,0,0-3.92,10.18,7.2,7.2,0,0,0,.6,1.09l-16.36,21.84,8.16,12.2,19.17-32.34a7.8,7.8,0,0,0,2.38-9.22,7.46,7.46,0,0,0-9.84-3.83h0Z" transform="translate(0 -157.08)"/><path class="cls-4" d="M388.48,288.21c1.07,1-1.9,2.12-5,.28-.9-.54-1.28-.76-1.38-.62-.26.35,1.22,3,.82,8.75-.24,3.45-6,9.94-12.49,16.28-8.81,8.56-19.05,16.82-19.05,16.82l-3.59-2.87L310,296.62l-6.36-8.81a63.15,63.15,0,0,1,2.61-10.23A113.75,113.75,0,0,1,312,264.1c1.17-2.37,2.37-4.63,3.53-6.71l20.2,22.26,16.92,18.64s4.93-7.94,8.75-10.1a3.6,3.6,0,0,1,1.62-.55c3.86-.18,4.09-2.29-.39-6.86s1.17-.3,5.15-1.54,0,0,.84-3.08,12-9.26,12-9.26l.47.42,8.43,7.44,2.41,2.13s-2.63,7.23-3.36,8.76S387.42,287.25,388.48,288.21Z" transform="translate(0 -157.08)"/><polygon class="cls-3" points="610.81 271.44 611.22 260.3 568.44 253.41 567.84 269.85 610.81 271.44"/><path class="cls-5" d="M603,431.88,602.63,414l7.63.28,12.31-16.49a4.76,4.76,0,0,1,8.58,3l-.78,21.19-7.68,3.37,7.49,1.7-.29,8Z" transform="translate(0 -157.08)"/><path class="cls-5" d="M370.05,432.86l135.49,3.43s58.51,3.38,72.24-5.55l14.47-1.82.79-21.27s-8.85.07-13.94-2.3-1.55-5.28-6.41-2.42-4.34,3.19-8.09,1.88-175.79-27.53-175.79-27.53Z" transform="translate(0 -157.08)"/><polygon class="cls-3" points="548.6 266.55 556.48 258.66 529.8 224.52 518.17 236.16 548.6 266.55"/><path class="cls-5" d="M540.62,416.77l11.83-13.35,5.4,5.39,20.24-3.72a4.77,4.77,0,0,1,4.24,8.06l-15,15-7.92-2.75,4.33,6.35-5.65,5.65Z" transform="translate(0 -157.08)"/><path class="cls-5" d="M316.6,358.66,318,390c1.58,36.86,42.18,59.16,73.65,39.92.58-.35,1.16-.72,1.75-1.1.87-.57,11.93-3.21,11.57-8.28s2.55-7.55,5.13-6.16,36.36-46.56,36.36-46.56,70.18,35,85.66,43.25c0,0,14.55-22.76,13.5-22.52s-86.82-59.79-86.82-59.79-14-14.14-31.3-4.8c-.36,1.37-.06,1.42-.06,1.42L370.14,372l-8.09-15.36Z" transform="translate(0 -157.08)"/><path class="cls-4" d="M370.58,319.51a32.88,32.88,0,0,1-.61,4.31,26.08,26.08,0,0,1-2,5.94s0,2.11-4,9.18,1,4,4,9.29,0,2.83-3.37,6.2a7.74,7.74,0,0,0-1.91,7.61s-43.39,0-51.47-3-9.92-20.1-2.67-21.79-2.2-3.36-6.45-7.25,4.25-10.25,4.25-10.25-3.5-6.05-3.21-26.37a40.06,40.06,0,0,1,.52-5.57,63.15,63.15,0,0,1,2.61-10.23A113.75,113.75,0,0,1,312,264.1c1.17-2.37,2.37-4.63,3.53-6.71.18-.33.35-.64.53-.95,2.19-3.88,4.19-7.05,5.52-9.08,1-1.58,1.63-2.47,1.63-2.47l7.35-12.78,24.55,11.5-1.4,18.82,4.24,14.19,1.95,6.53,1.5,5,2.32,7.81s-.63,0,.13,1.07a34.51,34.51,0,0,1,6.57,15.83A31.77,31.77,0,0,1,370.58,319.51Z" transform="translate(0 -157.08)"/><path class="cls-5" d="M441.46,321.54l-.46-.15-58.74-18.91,21.64-71a9.77,9.77,0,0,1,12.19-6.5,9.65,9.65,0,0,1,2.13.94l37.53,22.18a14.7,14.7,0,0,1,6.32,17.78Z" transform="translate(0 -157.08)"/><path class="cls-4" d="M441.7,326.06,382.48,307l21.65-71a9.74,9.74,0,0,1,14.31-5.56l39.33,19.64c5.91,3.49,5.77,12.52,3,19.93Z" transform="translate(0 -157.08)"/><path class="cls-2" d="M435.77,331.2a11.32,11.32,0,0,1-9,.9l-37.85-12.19a11.7,11.7,0,0,1-7.57-14.49l19-62.26a9.76,9.76,0,0,1,12.19-6.49l.2.06,39.23,12.88a14.72,14.72,0,0,1,9.39,18.58c0,.13-.08.25-.13.38l-20.29,56.56A11.32,11.32,0,0,1,435.77,331.2Z" transform="translate(0 -157.08)"/><circle class="cls-3" cx="353.69" cy="48.13" r="27.11"/><path class="cls-5" d="M262,232.73a23.54,23.54,0,0,0,11.54,10.8,27.18,27.18,0,0,0,6.23,2,24.17,24.17,0,0,1,2.87-6.81,20.25,20.25,0,0,0,0,7.2,23.88,23.88,0,0,0,9.67-1.2,20.72,20.72,0,0,0,13-13.21c2.16-7.18-.17-14.86-.35-22.36s3.37-16.47,10.82-17.4c5.67-.71,5-.16,9.05,3.85-5.7,6.33,8.19,34.38,15.65,33.14,4.22-.7,7.32-4,8.15-3.93,4.27,10.45-8.57,25.28,1.61,30.15l-.75-1c-5.33-8.81,10.44-23.69,5.11-32.5-1.49-2.46-3-5.35-2.11-8.07s5.29-3.42,6.22-1.06c-1.51-5.4,2.72-11.75,8.34-12.3,5-.49,4.71.93,9.47,2.23a24.66,24.66,0,0,1,2.61-5.84,19.88,19.88,0,0,0-.14,6.3,7.84,7.84,0,0,0,4.94-1.05c4.4-2.63,4.53-9.44,1.51-13.58s-8.1-6.18-13-7.73c0-10.34-27.87-15.29-33-5.68-.52-7.78-9.45-13-17.13-11.71s-13.76,7.49-17.45,14.36-5.54,14.55-8.24,21.87-6.58,14.6-13.06,18.94-16.11,4.73-21.52-.89A17.15,17.15,0,0,0,262,232.73Z" transform="translate(0 -157.08)"/><path class="cls-2" d="M289.83,356.7a10.1,10.1,0,0,1,1.82-1.14c10.38-5.17,42.64-18.57,67.88-18,48.54,1,110.33,54.63,96,90.61-10.94,27.38-65.34,43-105,30.5C294.81,441.2,272.85,370.24,289.83,356.7Z" transform="translate(0 -157.08)"/><path class="cls-6" d="M88.29,553.94c-15.86-3-29.9-74.46,1.31-109.66,10.69-12.06,24-17.31,41.77-22.19,102.12-28.12,180-1.32,190.48,5.22s28.75,104.88,5.34,118.8c-13.17,7.83-39.28,11.75-52.22,2.61-19-13.45,12.92-48.32-1.3-71.8C257.53,450.28,172.55,441.3,130,467.78,84.49,496,178.25,570.91,88.29,553.94Z" transform="translate(0 -157.08)"/><path class="cls-7" d="M194.35,432.43h-60.6c-15-14.34-25.66-28.16-17.09-39.63a12.43,12.43,0,0,1,12.43-12.43H199a12.44,12.44,0,0,1,12.44,12.43C214.71,405.87,208.88,419.08,194.35,432.43Z" transform="translate(0 -157.08)"/><path class="cls-7" d="M183.47,364.72a2.81,2.81,0,0,1-2-4.86l.2-.77-.08-.18a7.54,7.54,0,0,0-13.91,0c-2.27,5.48-5.17,11-5.88,16.76a22.48,22.48,0,0,0,.39,7.67A89.51,89.51,0,0,1,154,346.25a88.51,88.51,0,0,1,.53-9.63q.45-3.93,1.23-7.81a90.52,90.52,0,0,1,17.94-38.33,24.08,24.08,0,0,0,10-10.39,18.09,18.09,0,0,0,1.67-5c-.48.07-1.83-7.36-1.47-7.81-.68-1-1.89-1.55-2.63-2.55-3.69-5-8.78-4.13-11.43,2.67-5.67,2.86-5.72,7.6-2.25,12.17,2.22,2.9,2.52,6.83,4.46,9.94l-.6.76A90.25,90.25,0,0,0,162,305.3a37.75,37.75,0,0,0-2.26-17.58c-2.16-5.22-6.21-9.61-9.78-14.12-4.29-5.42-13.08-3.05-13.84,3.81a1.23,1.23,0,0,1,0,.2q.8.45,1.56,1a3.8,3.8,0,0,1,1.05,5.28,3.85,3.85,0,0,1-2.59,1.65H136a37.45,37.45,0,0,0,1,5.66c-4.58,17.71,5.31,24.16,19.43,24.45.31.16.61.32.93.47a92.57,92.57,0,0,0-5,23.54,87.8,87.8,0,0,0,.07,14.23l0-.16a23.25,23.25,0,0,0-8-13.45c-6.12-5-14.76-6.88-21.36-10.92a4.38,4.38,0,0,0-6,1.32,4.33,4.33,0,0,0-.65,2.93c0,.06,0,.12,0,.18a24.44,24.44,0,0,1,2.87,1.38q.79.45,1.56,1a3.8,3.8,0,0,1,1.05,5.28,3.85,3.85,0,0,1-2.59,1.65h-.07l-.16,0a37.84,37.84,0,0,0,7,10.92c2.87,15.46,15.16,16.93,28.32,12.43h0a92.46,92.46,0,0,0,6.24,18.22h22.29c.08-.25.15-.51.22-.75a25.44,25.44,0,0,1-6.16-.37c1.65-2,3.3-4.08,5-6.11a.63.63,0,0,0,.1-.12c.84-1,1.69-2.07,2.53-3.1h0a37.16,37.16,0,0,0-1.09-9.45Z" transform="translate(0 -157.08)"/><path class="cls-7" d="M259.51,429.18a5.38,5.38,0,0,0,5.18,3.64l22.24-.57a5.32,5.32,0,0,0,5-3.91l3.14-33.65a8.24,8.24,0,0,0,3.56.74,8.11,8.11,0,0,0-.41-16.22,6.38,6.38,0,0,0-1.45.16,5.53,5.53,0,0,0-4.09-1.77l-34.2.88a4.82,4.82,0,0,0-.85.11,5.34,5.34,0,0,0-4.27,6.23,5.53,5.53,0,0,0,.18.7Zm36.23-36.77,2.24-8a5.43,5.43,0,0,0,0-2.83c.11,0,.21-.05.32-.05a5.8,5.8,0,0,1,.27,11.6,5.42,5.42,0,0,1-2.84-.7Z" transform="translate(0 -157.08)"/><path class="cls-8" d="M257.65,378.59c.73,4.16,8.92,7.09,18.77,6.58,9.06-.41,16.47-3.59,17.82-7.36a5,5,0,0,0-1.55-.21l-34.19.88A4.82,4.82,0,0,0,257.65,378.59Z" transform="translate(0 -157.08)"/><path class="cls-9" d="M1.19,555.52l748.75.31a1.2,1.2,0,0,0,0-2.39l-748.75-.3a1.19,1.19,0,0,0,0,2.38Z" transform="translate(0 -157.08)"/><path class="cls-3" d="M421.14,289.41a7.84,7.84,0,0,0-7.54,7.89,8.56,8.56,0,0,0,.14,1.24l-23.5,13.87,2.84,14.4,30.14-22.49a7.79,7.79,0,0,0,5.74-7.6,7.46,7.46,0,0,0-7.61-7.31h-.21Z" transform="translate(0 -157.08)"/><path class="cls-4" d="M401.89,322.49c-.63-.85-.9-1.2-1-1.1-.37.22,0,3.2-2.6,8.38-3.65,7.29-41.85,18.44-41.85,18.44l-4.7-8.61L331,301.76l-7.13-30.33a13.42,13.42,0,0,1-.36-3.22,127.84,127.84,0,0,1,20.17-11.61,13.47,13.47,0,0,1,6.06,7.22L364,303.74l5.69,15.95s10-7.17,13.66-5.86,4.66-.53,2.29-6.47,1.18.17,5.33.56,0,0,2-2.52,14.65-3.94,14.65-3.94l.27.56,4.91,10.11,1.41,2.91s-5.21,5.65-6.47,6.78-1.65,1.06-1,2.35S404.07,325.4,401.89,322.49Z" transform="translate(0 -157.08)"/></svg>