<svg id="Layer_1" data-name="Layer 1" xmlns="http://www.w3.org/2000/svg" viewBox="0 0 732.78 727.95"><defs><style>.cls-1{fill:#f2f2f2;}.cls-2{fill:none;stroke:#3f3d56;stroke-miterlimit:10;}.cls-3{fill:#6c63ff;}.cls-4{opacity:0.1;isolation:isolate;}.cls-5{fill:#ff6584;}.cls-6{fill:#fbbebe;}.cls-7{fill:#2f2e41;}</style></defs><ellipse class="cls-1" cx="449.78" cy="684.95" rx="283" ry="43"/><path class="cls-1" d="M161.76,391.84a58.48,58.48,0,0,1,58.4-55.43c1.78,0,3.54.09,5.27.25a77.7,77.7,0,0,1,134.33-.07c1.47-.11,2.94-.18,4.44-.18a58.48,58.48,0,0,1,58.4,55.43" transform="translate(0 -43.97)"/><path class="cls-2" d="M173.94,387.34a58.49,58.49,0,0,1,58.41-55.43c1.77,0,3.53.09,5.27.25a77.69,77.69,0,0,1,134.32-.07c1.47-.11,2.94-.18,4.44-.18a58.48,58.48,0,0,1,58.4,55.43" transform="translate(0 -43.97)"/><path class="cls-3" d="M295.05,217.47s105.12,52.2,124,45,25.38-71.77,25.38-71.77l-77.58-14.5Z" transform="translate(0 -43.97)"/><path class="cls-4" d="M295.05,217.47s105.12,52.2,124,45,25.38-71.77,25.38-71.77l-77.58-14.5Z" transform="translate(0 -43.97)"/><rect class="cls-5" x="444.03" y="95.57" width="68.87" height="60.17"/><rect class="cls-4" x="444.03" y="95.57" width="68.87" height="60.17"/><path class="cls-6" d="M381.32,395.81s-2.9,63.08,16.68,61.63S398,398,398,398Z" transform="translate(0 -43.97)"/><path class="cls-6" d="M461.79,148.6s4.35,27.55-3.62,31.17-13.05,6.53-13.05,6.53l18.12,12.32,33.35,2.18,8.7-6.53,8-7.25s-13-2.9-13-9.42-.73-26.1-.73-26.1Z" transform="translate(0 -43.97)"/><path class="cls-4" d="M461.79,148.6s4.35,27.55-3.62,31.17-13.05,6.53-13.05,6.53l18.12,12.32,33.35,2.18,8.7-6.53,8-7.25s-13-2.9-13-9.42-.73-26.1-.73-26.1Z" transform="translate(0 -43.97)"/><path class="cls-6" d="M416.12,406.69s-21,67.42-21,116.72c0,0-34.8,78.29-33.35,116.72l-8.7,52.92,12.32,4.35,9.43-8s2.9-28.28,12.32-42,31.18-79,31.18-79,58-121.8,55.82-139.2S416.12,406.69,416.12,406.69Z" transform="translate(0 -43.97)"/><path class="cls-6" d="M544.44,391.46S558.21,398,538.64,514c0,0,10.88,76.85,1.45,118.9l-1.45,42H523.42l-2.9-4.35s-.73-37.7-5.8-47.85-9.43-68.87-9.43-68.87-23.2-119.62-18.12-129.77S544.44,391.46,544.44,391.46Z" transform="translate(0 -43.97)"/><path class="cls-7" d="M350.87,680.73s5.08,11.6,14.5,8.7,11.6-2.9,11.6-2.9-6.52,33.34-4.35,49.29-1.45,26.1-15.95,26.1S340,744.52,340,744.52l6.53-41.32Z" transform="translate(0 -43.97)"/><path class="cls-7" d="M517.62,662.6s5.07,10.15,13,8,10.87-5.8,10.87-5.8-.72,22.47,2.18,32.62,9.42,39.15-5.8,40.6a19.57,19.57,0,0,1-20.3-11.6Z" transform="translate(0 -43.97)"/><circle class="cls-6" cx="481.37" cy="135.55" r="31.9" transform="translate(264.35 542.13) rotate(-80.01)"/><path class="cls-7" d="M540.09,192.82s-25.27-9.92-34.38-8.58A37.24,37.24,0,0,1,477,192.82c-17.4-2.17-24.2-10.52-24.2-10.52S406,192.82,408.87,197.17s15.95,75.4,15.95,75.4,8.7,61.62-1.45,82.65S408.15,411,412.5,413.94s52.92,15.95,58.72,19.57,8-8.7,11.6-6.52,11.6,5.8,16.67,2.9,54.38-29,52.93-34.08-20.3-66.69-26.83-79-1.45-38.42,2.18-43.49,10.87-10.88,12.32-25.38S540.09,192.82,540.09,192.82Z" transform="translate(0 -43.97)"/><path class="cls-7" d="M410.47,194.93s-6,4.42-8.12,13.84-5.08,84.82-5.08,84.82-26.82,103.67-21,105.85,22.47,6.52,24.65,4.35,26.82-89.9,24.65-99.32,2.9-37,2.9-37Z" transform="translate(0 -43.97)"/><path class="cls-6" d="M544.44,329.84s-39.15-19.57-43.5-6.52,41.33,26.82,41.33,26.82,15.94-5.8,15.94-9.42S544.44,329.84,544.44,329.84Z" transform="translate(0 -43.97)"/><path class="cls-7" d="M532.12,195.72l8-2.9s4.35-2.9,9.43,8,60.17,74.67,50,95-43.5,61.62-44.95,58.72-18.12-24.65-15.22-26.82,36.24-31.9,31.89-36.25-22.47-41.32-32.62-42.77S532.12,195.72,532.12,195.72Z" transform="translate(0 -43.97)"/><path class="cls-3" d="M446.21,134.46S335.66,90,240,47.24c0,0-50-12.32-76.12,10.88,0,0,21.75-2.9,21.75,9.42,0,0,18.85,24.65-39.87,29-40.9,3-57.18,27.51-63.3,42.09a59.21,59.21,0,0,1-24,28.17C44.33,175.25,23.84,181.46,0,170.49c0,0,1.36,2.08,3.93,5.55,46,62.17,217.48,116.28,278,68.12,37.41-29.76,96.73-67.38,139.25-48.44,66.69,29.73,79,16.68,79,16.68l2.9-8s-64.52-17.4-66-39.87S446.21,134.46,446.21,134.46Z" transform="translate(0 -43.97)"/><path class="cls-3" d="M510.73,140.26s15.59,6.17,18.49,26.47c0,0,16.67,32.62-2.18,40.59s-22.47,5.8-22.47,5.8V209.5s20.3-12.33,15.95-21.75S510.73,140.26,510.73,140.26Z" transform="translate(0 -43.97)"/><path class="cls-3" d="M482.82,232.7s5.07-13,3.62-13,5.9-8,8.75-5.1,7.93,11.62,2.13,13.8S482.82,232.7,482.82,232.7Z" transform="translate(0 -43.97)"/><path class="cls-3" d="M518.55,225s-13.25-4.52-13.19-3.07-8.27-5.55-5.47-8.52,11.28-8.41,13.7-2.71S518.55,225,518.55,225Z" transform="translate(0 -43.97)"/><path class="cls-3" d="M497.32,205.15s6.62-3.72,10.56,2.13-4.76,16-10.56,16-5.8-12.32-5.8-12.32Z" transform="translate(0 -43.97)"/><path class="cls-4" d="M497.32,205.15s6.62-3.72,10.56,2.13-4.76,16-10.56,16-5.8-12.32-5.8-12.32Z" transform="translate(0 -43.97)"/><path class="cls-5" d="M453.71,83.5c-3.82,3.15-7.44,6.68-9.82,11a49.11,49.11,0,0,0-3.12,7.58c-2.93,8.44-10.22,17-7.13,25.37.88,2.39,2.25,4.91,1.46,7.33-.7,2.15-2.86,3.41-4.43,5.05-3.35,3.51-3.92,8.78-4.12,13.63-.38,8.89,4.51,19.37,10.42,26a36.58,36.58,0,0,1,3.55,4,9.44,9.44,0,0,1,1.11,7.76l8.61-1.79a72.61,72.61,0,0,1,.29,9.56,8.94,8.94,0,0,0,9.46-6.12,25.78,25.78,0,0,0,2.36,6.53,33.74,33.74,0,0,0,5.72-10.58,30.26,30.26,0,0,0,1-15.28,65,65,0,0,0-3.7-10.86c-3-7.68-5.52-15.57-8-23.45-1.29-4.1-2.59-8.32-2.2-12.6l3.05-.33a14.56,14.56,0,0,1,1-4.93,18.35,18.35,0,0,1,5.11,1.92l3.52-8.94c2.33,2.41,5.67,3.5,8.86,4.51l12.15,3.82.08-2.4a62.14,62.14,0,0,0,17.28,10.84,3.93,3.93,0,0,1-.85-3.13c3,5.37,1.8,12.05-.05,17.91s-4.3,11.82-3.56,17.91c.56,4.56,2.9,8.93,2.46,13.5-.21,2.25-1.09,4.39-1.36,6.64-.66,5.36,2.16,10.46,4.88,15.12l5.28-7.26c1.94-2.66,3.93-5.37,6.67-7.19s6.3-2.7,8.75-5c4.37-4.14,3.81-11.19,2.39-17-.75-3.11-1.67-6.27-1.39-9.46.47-5.4,4.23-9.87,6.34-14.87a25.82,25.82,0,0,0-1.45-22.71c-2.62-4.5-6.59-8.13-9.06-12.71s-3.4-10-6.78-13.95a23.43,23.43,0,0,0-5.68-4.52,74,74,0,0,0-31.51-10.28C470.73,73,461.81,76.82,453.71,83.5Z" transform="translate(0 -43.97)"/></svg>